<svg width="106" height="99" viewBox="0 0 106 99" fill="none" xmlns="http://www.w3.org/2000/svg">
<circle cx="52.8" cy="49.5" r="47.85" fill="#FBFBFB" stroke="#9F623F" stroke-width="3.3"/>
<path d="M78.5328 52.5756C78.5328 53.724 78.2358 54.813 77.6418 55.8426C77.0478 56.8326 76.0182 57.3276 74.553 57.3276C73.2462 57.3276 72.0582 56.7732 70.989 55.6644C69.9198 54.516 68.7714 53.2488 67.5438 51.8628C66.2766 50.358 64.851 48.972 63.267 47.7048C61.6434 46.4376 59.6832 45.7644 57.3864 45.6852C55.9212 45.6456 54.5946 45.8436 53.4066 46.2792C52.2186 46.7148 51.2682 47.4672 50.5554 48.5364C49.8426 49.6056 49.4862 51.0708 49.4862 52.932C49.4862 54.0408 49.704 55.0902 50.1396 56.0802C50.5752 57.0306 51.1296 57.8028 51.8028 58.3968C52.4364 58.9908 53.07 59.3472 53.7036 59.466C54.0204 59.268 54.3768 59.1096 54.7728 58.9908C55.1688 58.8324 55.5846 58.7532 56.0202 58.7532C56.535 58.7532 57.1092 58.971 57.7428 59.4066C58.3368 59.8422 58.614 60.5352 58.5744 61.4856C58.4952 62.3568 58.1784 63.0102 57.624 63.4458C57.03 63.8418 56.2974 64.0398 55.4262 64.0398C54.2778 64.0398 53.07 63.5646 51.8028 62.6142C50.496 61.6242 49.407 60.2382 48.5358 58.4562C47.625 56.6742 47.1696 54.5358 47.1696 52.041C47.1696 48.9522 47.6844 46.5366 48.714 44.7942C49.7436 43.0122 51.0504 41.7648 52.6344 41.052C54.2184 40.2996 55.842 39.963 57.5052 40.0422C59.1288 40.161 60.6138 40.6956 61.9602 41.646C63.267 42.5568 64.4748 43.6656 65.5836 44.9724C66.6924 46.2792 67.722 47.5662 68.6724 48.8334C69.6228 50.1006 70.5336 51.1698 71.4048 52.041C72.2364 52.9122 73.0482 53.3478 73.8402 53.3478C74.3154 53.3478 74.7708 53.1696 75.2064 52.8132C75.6024 52.4172 75.8004 51.7638 75.8004 50.853C75.8004 50.5362 75.7806 50.1798 75.741 49.7838C75.6618 49.3878 75.543 49.0116 75.3846 48.6552L77.4636 47.9424C77.82 48.576 78.0972 49.3284 78.2952 50.1996C78.4536 51.0708 78.5328 51.8628 78.5328 52.5756ZM90.6504 52.2192C90.6504 53.0112 90.3336 53.7438 89.7 54.417C89.106 55.0902 88.2546 55.4268 87.1458 55.4268C86.1954 55.4268 85.3836 55.0902 84.7104 54.417C83.9976 53.7438 83.6412 53.0112 83.6412 52.2192C83.6412 51.3084 83.9976 50.556 84.7104 49.962C85.3836 49.3284 86.1954 49.0116 87.1458 49.0116C88.1358 49.0116 88.9674 49.3284 89.6406 49.962C90.3138 50.556 90.6504 51.3084 90.6504 52.2192Z" fill="#9F623F"/>
<path d="M27.0672 49.7243C27.0672 48.5759 27.3642 47.4869 27.9582 46.4573C28.5522 45.4673 29.5818 44.9723 31.047 44.9723C32.3538 44.9723 33.5418 45.5267 34.611 46.6355C35.6802 47.7839 36.8286 49.0511 38.0562 50.4371C39.3234 51.9419 40.749 53.3279 42.333 54.5951C43.9566 55.8623 45.9168 56.5355 48.2136 56.6147C49.6788 56.6543 51.0054 56.4563 52.1934 56.0207C53.3814 55.5851 54.3318 54.8327 55.0446 53.7635C55.7574 52.6943 56.1138 51.2291 56.1138 49.3679C56.1138 48.2591 55.896 47.2097 55.4604 46.2197C55.0248 45.2693 54.4704 44.4971 53.7972 43.9031C53.1636 43.3091 52.53 42.9527 51.8964 42.8339C51.5796 43.0319 51.2232 43.1903 50.8272 43.3091C50.4312 43.4675 50.0154 43.5467 49.5798 43.5467C49.065 43.5467 48.4908 43.3289 47.8572 42.8933C47.2632 42.4577 46.986 41.7647 47.0256 40.8143C47.1048 39.9431 47.4216 39.2897 47.976 38.8541C48.57 38.4581 49.3026 38.2601 50.1738 38.2601C51.3222 38.2601 52.53 38.7353 53.7972 39.6857C55.104 40.6757 56.193 42.0617 57.0642 43.8437C57.975 45.6257 58.4304 47.7641 58.4304 50.2589C58.4304 53.3477 57.9156 55.7633 56.886 57.5057C55.8564 59.2877 54.5496 60.5351 52.9656 61.2479C51.3816 62.0003 49.758 62.3369 48.0948 62.2577C46.4712 62.1389 44.9862 61.6043 43.6398 60.6539C42.333 59.7431 41.1252 58.6343 40.0164 57.3275C38.9076 56.0207 37.878 54.7337 36.9276 53.4665C35.9772 52.1993 35.0664 51.1301 34.1952 50.2589C33.3636 49.3877 32.5518 48.9521 31.7598 48.9521C31.2846 48.9521 30.8292 49.1303 30.3936 49.4867C29.9976 49.8827 29.7996 50.5361 29.7996 51.4469C29.7996 51.7637 29.8194 52.1201 29.859 52.5161C29.9382 52.9121 30.057 53.2883 30.2154 53.6447L28.1364 54.3575C27.78 53.7239 27.5028 52.9715 27.3048 52.1003C27.1464 51.2291 27.0672 50.4371 27.0672 49.7243ZM14.9496 50.0807C14.9496 49.2887 15.2664 48.5561 15.9 47.8829C16.494 47.2097 17.3454 46.8731 18.4542 46.8731C19.4046 46.8731 20.2164 47.2097 20.8896 47.8829C21.6024 48.5561 21.9588 49.2887 21.9588 50.0807C21.9588 50.9915 21.6024 51.7439 20.8896 52.3379C20.2164 52.9715 19.4046 53.2883 18.4542 53.2883C17.4642 53.2883 16.6326 52.9715 15.9594 52.3379C15.2862 51.7439 14.9496 50.9915 14.9496 50.0807Z" fill="#9F623F"/>
</svg>
